  0
SECTION
  2
HEADER
  9
$ACADVER
  1
AC1015
  9
$ACADMAINTVER
 70
     6
  9
$DWGCODEPAGE
  3
ANSI_1252
  9
$INSBASE
 10
0.0
 20
0.0
 30
0.0
  9
$EXTMIN
 10
-73.9481068047
 20
-73.9481068047
 30
0.0
  9
$EXTMAX
 10
73.9481068047
 20
73.9481068047
 30
0.0
  9
$LIMMIN
 10
0.0
 20
0.0
  9
$LIMMAX
 10
420.0
 20
297.0
  9
$ORTHOMODE
 70
     0
  9
$REGENMODE
 70
     1
  9
$FILLMODE
 70
     1
  9
$QTEXTMODE
 70
     0
  9
$MIRRTEXT
 70
     1
  9
$LTSCALE
 40
1.0
  9
$ATTMODE
 70
     1
  9
$TEXTSIZE
 40
3.5
  9
$TRACEWID
 40
1.0
  9
$TEXTSTYLE
  7
Standard
  9
$CLAYER
  8
0
  9
$CELTYPE
  6
ByLayer
  9
$CECOLOR
 62
   256
  9
$CELTSCALE
 40
1.0
  9
$DISPSILH
 70
     0
  9
$DIMSCALE
 40
1.0
  9
$DIMASZ
 40
3.302
  9
$DIMEXO
 40
0.0
  9
$DIMDLI
 40
3.75
  9
$DIMRND
 40
0.0
  9
$DIMDLE
 40
0.0
  9
$DIMEXE
 40
1.0
  9
$DIMTP
 40
0.0
  9
$DIMTM
 40
0.0
  9
$DIMTXT
 40
3.5
  9
$DIMCEN
 40
2.5
  9
$DIMTSZ
 40
0.0
  9
$DIMTOL
 70
     0
  9
$DIMLIM
 70
     0
  9
$DIMTIH
 70
     1
  9
$DIMTOH
 70
     1
  9
$DIMSE1
 70
     0
  9
$DIMSE2
 70
     0
  9
$DIMTAD
 70
     1
  9
$DIMZIN
 70
     1
  9
$DIMBLK
  1

  9
$DIMASO
 70
     1
  9
$DIMSHO
 70
     1
  9
$DIMPOST
  1

  9
$DIMAPOST
  1

  9
$DIMALT
 70
     0
  9
$DIMALTD
 70
     3
  9
$DIMALTF
 40
0.0393700787
  9
$DIMLFAC
 40
1.0
  9
$DIMTOFL
 70
     1
  9
$DIMTVP
 40
0.0
  9
$DIMTIX
 70
     0
  9
$DIMSOXD
 70
     0
  9
$DIMSAH
 70
     0
  9
$DIMBLK1
  1

  9
$DIMBLK2
  1

  9
$DIMSTYLE
  2
ISO-25
  9
$DIMCLRD
 70
     0
  9
$DIMCLRE
 70
     0
  9
$DIMCLRT
 70
     0
  9
$DIMTFAC
 40
1.0
  9
$DIMGAP
 40
1.524
  9
$DIMJUST
 70
     0
  9
$DIMSD1
 70
     0
  9
$DIMSD2
 70
     0
  9
$DIMTOLJ
 70
     0
  9
$DIMTZIN
 70
     1
  9
$DIMALTZ
 70
     0
  9
$DIMALTTZ
 70
     0
  9
$DIMUPT
 70
     0
  9
$DIMDEC
 70
     2
  9
$DIMTDEC
 70
     2
  9
$DIMALTU
 70
     2
  9
$DIMALTTD
 70
     3
  9
$DIMTXSTY
  7
Standard
  9
$DIMAUNIT
 70
     0
  9
$DIMADEC
 70
     2
  9
$DIMALTRND
 40
0.0
  9
$DIMAZIN
 70
     0
  9
$DIMDSEP
 70
    44
  9
$DIMATFIT
 70
     3
  9
$DIMFRAC
 70
     0
  9
$DIMLDRBLK
  1

  9
$DIMLUNIT
 70
     2
  9
$DIMLWD
 70
    -2
  9
$DIMLWE
 70
    -2
  9
$DIMTMOVE
 70
     0
  9
$LUNITS
 70
     2
  9
$LUPREC
 70
     2
  9
$SKETCHINC
 40
1.0
  9
$FILLETRAD
 40
0.0
  9
$AUNITS
 70
     0
  9
$AUPREC
 70
     2
  9
$MENU
  1
.
  9
$ELEVATION
 40
0.0
  9
$PELEVATION
 40
0.0
  9
$THICKNESS
 40
0.0
  9
$LIMCHECK
 70
     0
  9
$CHAMFERA
 40
0.0
  9
$CHAMFERB
 40
0.0
  9
$CHAMFERC
 40
0.0
  9
$CHAMFERD
 40
0.0
  9
$SKPOLY
 70
     0
  9
$TDCREATE
 40
2460036.805686042
  9
$TDUCREATE
 40
2460036.764019375
  9
$TDUPDATE
 40
2460036.805715394
  9
$TDUUPDATE
 40
2460036.764048727
  9
$TDINDWG
 40
0.0000000116
  9
$TDUSRTIMER
 40
0.0000000116
  9
$USRTIMER
 70
     1
  9
$ANGBASE
 50
0.0
  9
$ANGDIR
 70
     0
  9
$PDMODE
 70
     0
  9
$PDSIZE
 40
-1.0
  9
$PLINEWID
 40
0.0
  9
$SPLFRAME
 70
     0
  9
$SPLINETYPE
 70
     6
  9
$SPLINESEGS
 70
     8
  9
$HANDSEED
  5
7F
  9
$SURFTAB1
 70
     6
  9
$SURFTAB2
 70
     6
  9
$SURFTYPE
 70
     6
  9
$SURFU
 70
     6
  9
$SURFV
 70
     6
  9
$UCSBASE
  2

  9
$UCSNAME
  2

  9
$UCSORG
 10
0.0
 20
0.0
 30
0.0
  9
$UCSXDIR
 10
1.0
 20
0.0
 30
0.0
  9
$UCSYDIR
 10
0.0
 20
1.0
 30
0.0
  9
$UCSORTHOREF
  2

  9
$UCSORTHOVIEW
 70
     0
  9
$UCSORGTOP
 10
0.0
 20
0.0
 30
0.0
  9
$UCSORGBOTTOM
 10
0.0
 20
0.0
 30
0.0
  9
$UCSORGLEFT
 10
0.0
 20
0.0
 30
0.0
  9
$UCSORGRIGHT
 10
0.0
 20
0.0
 30
0.0
  9
$UCSORGFRONT
 10
0.0
 20
0.0
 30
0.0
  9
$UCSORGBACK
 10
0.0
 20
0.0
 30
0.0
  9
$PUCSBASE
  2

  9
$PUCSNAME
  2

  9
$PUCSORG
 10
0.0
 20
0.0
 30
0.0
  9
$PUCSXDIR
 10
1.0
 20
0.0
 30
0.0
  9
$PUCSYDIR
 10
0.0
 20
1.0
 30
0.0
  9
$PUCSORTHOREF
  2

  9
$PUCSORTHOVIEW
 70
     0
  9
$PUCSORGTOP
 10
0.0
 20
0.0
 30
0.0
  9
$PUCSORGBOTTOM
 10
0.0
 20
0.0
 30
0.0
  9
$PUCSORGLEFT
 10
0.0
 20
0.0
 30
0.0
  9
$PUCSORGRIGHT
 10
0.0
 20
0.0
 30
0.0
  9
$PUCSORGFRONT
 10
0.0
 20
0.0
 30
0.0
  9
$PUCSORGBACK
 10
0.0
 20
0.0
 30
0.0
  9
$USERI1
 70
     0
  9
$USERI2
 70
     0
  9
$USERI3
 70
     0
  9
$USERI4
 70
     0
  9
$USERI5
 70
     0
  9
$USERR1
 40
0.0
  9
$USERR2
 40
0.0
  9
$USERR3
 40
0.0
  9
$USERR4
 40
0.0
  9
$USERR5
 40
0.0
  9
$WORLDVIEW
 70
     1
  9
$SHADEDGE
 70
     3
  9
$SHADEDIF
 70
    70
  9
$TILEMODE
 70
     1
  9
$MAXACTVP
 70
    64
  9
$PINSBASE
 10
0.0
 20
0.0
 30
0.0
  9
$PLIMCHECK
 70
     0
  9
$PEXTMIN
 10
1.0000000000E+20
 20
1.0000000000E+20
 30
1.0000000000E+20
  9
$PEXTMAX
 10
-1.0000000000E+20
 20
-1.0000000000E+20
 30
-1.0000000000E+20
  9
$PLIMMIN
 10
0.0
 20
0.0
  9
$PLIMMAX
 10
420.0
 20
297.0
  9
$UNITMODE
 70
     0
  9
$VISRETAIN
 70
     1
  9
$PLINEGEN
 70
     0
  9
$PSLTSCALE
 70
     1
  9
$TREEDEPTH
 70
  3020
  9
$CMLSTYLE
  2
Standard
  9
$CMLJUST
 70
     0
  9
$CMLSCALE
 40
20.0
  9
$PROXYGRAPHICS
 70
     1
  9
$MEASUREMENT
 70
     1
  9
$CELWEIGHT
370
    -1
  9
$ENDCAPS
280
     0
  9
$JOINSTYLE
280
     0
  9
$LWDISPLAY
290
     1
  9
$INSUNITS
 70
     4
  9
$HYPERLINKBASE
  1

  9
$STYLESHEET
  1

  9
$XEDIT
290
     1
  9
$CEPSNTYPE
380
     0
  9
$PSTYLEMODE
290
     1
  9
$FINGERPRINTGUID
  2
{cb386ef0-6557-4416-b749-ca055311efb8}
  9
$VERSIONGUID
  2
{FAEB1C32-E019-11D5-929B-00C0DF256EC4}
  9
$EXTNAMES
290
     1
  9
$PSVPSCALE
 40
0.0
  9
$OLESTARTUP
290
     0
  0
ENDSEC
  0
SECTION
  2
CLASSES
  0
CLASS
  1
ACDBDICTIONARYWDFLT
  2
AcDbDictionaryWithDefault
  3
ObjectDBX Classes
 90
        0
280
     0
281
     0
  0
CLASS
  1
VISUALSTYLE
  2
AcDbVisualStyle
  3
ObjectDBX Classes
 90
     4095
280
     0
281
     0
  0
CLASS
  1
MATERIAL
  2
AcDbMaterial
  3
ObjectDBX Classes
 90
     1153
280
     0
281
     0
  0
CLASS
  1
SCALE
  2
AcDbScale
  3
ObjectDBX Classes
 90
     1153
280
     0
281
     0
  0
CLASS
  1
TABLESTYLE
  2
AcDbTableStyle
  3
ObjectDBX Classes
 90
     4095
280
     0
281
     0
  0
CLASS
  1
MLEADERSTYLE
  2
AcDbMLeaderStyle
  3
ACDB_MLEADERSTYLE_CLASS
 90
     4095
280
     0
281
     0
  0
CLASS
  1
SUN
  2
AcDbSun
  3
SCENEOE
 90
     1153
280
     0
281
     0
  0
CLASS
  1
ACDBPLACEHOLDER
  2
AcDbPlaceHolder
  3
ObjectDBX Classes
 90
        0
280
     0
281
     0
  0
CLASS
  1
LAYOUT
  2
AcDbLayout
  3
ObjectDBX Classes
 90
        0
280
     0
281
     0
  0
ENDSEC
  0
SECTION
  2
TABLES
  0
TABLE
  2
VPORT
  5
8
330
0
100
AcDbSymbolTable
 70
     1
  0
VPORT
  5
29
330
8
100
AcDbSymbolTableRecord
100
AcDbViewportTableRecord
  2
*Active
 70
     0
 10
0.0
 20
0.0
 11
1.0
 21
1.0
 12
0.0
 22
0.0
 13
0.0
 23
0.0
 14
10.0
 24
10.0
 15
10.0
 25
10.0
 16
0.0
 26
0.0
 36
1.0
 17
0.0
 27
0.0
 37
0.0
 40
150.8541378816
 41
1.0
 42
50.0
 43
0.0
 44
0.0
 50
0.0
 51
0.0
 71
     0
 72
   100
 73
     1
 74
     3
 75
     0
 76
     0
 77
     0
 78
     0
281
     0
 65
     1
110
0.0
120
0.0
130
0.0
111
1.0
121
0.0
131
0.0
112
0.0
122
1.0
132
0.0
 79
     0
146
0.0
  0
ENDTAB
  0
TABLE
  2
LTYPE
  5
5
330
0
100
AcDbSymbolTable
 70
     6
  0
LTYPE
  5
14
330
5
100
AcDbSymbolTableRecord
100
AcDbLinetypeTableRecord
  2
ByBlock
 70
     0
  3

 72
    65
 73
     0
 40
0.0
  0
LTYPE
  5
15
330
5
100
AcDbSymbolTableRecord
100
AcDbLinetypeTableRecord
  2
ByLayer
 70
     0
  3

 72
    65
 73
     0
 40
0.0
  0
LTYPE
  5
16
330
5
100
AcDbSymbolTableRecord
100
AcDbLinetypeTableRecord
  2
Continuous
 70
     0
  3
Solid line
 72
    65
 73
     0
 40
0.0
  0
LTYPE
  5
5E
330
5
100
AcDbSymbolTableRecord
100
AcDbLinetypeTableRecord
  2
HIDDEN
 70
     0
  3
Hidden __ __ __ __ __ __ __ __ __ __ __ __ __ __
 72
    65
 73
     2
 40
1.905
 49
1.27
 74
     0
 49
-0.635
 74
     0
  0
LTYPE
  5
5F
330
5
100
AcDbSymbolTableRecord
100
AcDbLinetypeTableRecord
  2
PHANTOM
 70
     0
  3
Phantom ______  __  __  ______  __  __  ______
 72
    65
 73
     6
 40
12.7
 49
6.35
 74
     0
 49
-1.27
 74
     0
 49
1.27
 74
     0
 49
-1.27
 74
     0
 49
1.27
 74
     0
 49
-1.27
 74
     0
  0
LTYPE
  5
60
330
5
100
AcDbSymbolTableRecord
100
AcDbLinetypeTableRecord
  2
CENTER
 70
     0
  3
Center ____ _ ____ _ ____ _ ____ _ ____ _ ____
 72
    65
 73
     4
 40
10.16
 49
6.35
 74
     0
 49
-1.27
 74
     0
 49
1.27
 74
     0
 49
-1.27
 74
     0
  0
LTYPE
  5
61
330
5
100
AcDbSymbolTableRecord
100
AcDbLinetypeTableRecord
  2
CENTERX2
 70
     0
  3
Center (2x) ________  __  ________  __  _____
 72
    65
 73
     4
 40
20.32
 49
12.7
 74
     0
 49
-2.54
 74
     0
 49
2.54
 74
     0
 49
-2.54
 74
     0
  0
LTYPE
  5
62
330
5
100
AcDbSymbolTableRecord
100
AcDbLinetypeTableRecord
  2
DOT2
 70
     0
  3
Dot (.5x) ........................................
 72
    65
 73
     2
 40
0.635
 49
0.0
 74
     0
 49
-0.635
 74
     0
  0
ENDTAB
  0
TABLE
  2
LAYER
  5
2
330
0
100
AcDbSymbolTable
 70
     1
  0
LAYER
  5
10
330
2
100
AcDbSymbolTableRecord
100
AcDbLayerTableRecord
  2
0
 70
     0
 62
     7
  6
Continuous
370
    -3
390
F
  0
ENDTAB
  0
TABLE
  2
STYLE
  5
3
330
0
100
AcDbSymbolTable
 70
     2
  0
STYLE
  5
11
330
3
100
AcDbSymbolTableRecord
100
AcDbTextStyleTableRecord
  2
Standard
 70
     0
 40
0.0
 41
1.0
 50
0.0
 71
     0
 42
3.5
  3
txt
  4

  0
STYLE
  5
7B
330
3
100
AcDbSymbolTableRecord
100
AcDbTextStyleTableRecord
  2
SLDTEXTSTYLE0
 70
     0
 40
0.0
 41
0.7
 50
0.0
 71
     0
 42
3.5
  3
TXT
  4

  0
ENDTAB
  0
TABLE
  2
VIEW
  5
6
330
0
100
AcDbSymbolTable
 70
     0
  0
ENDTAB
  0
TABLE
  2
UCS
  5
7
330
0
100
AcDbSymbolTable
 70
     0
  0
ENDTAB
  0
TABLE
  2
APPID
  5
9
330
0
100
AcDbSymbolTable
 70
     1
  0
APPID
  5
12
330
9
100
AcDbSymbolTableRecord
100
AcDbRegAppTableRecord
  2
ACAD
 70
     0
  0
ENDTAB
  0
TABLE
  2
DIMSTYLE
  5
A
330
0
100
AcDbSymbolTable
 70
     1
100
AcDbDimStyleTable
  0
DIMSTYLE
105
27
330
A
100
AcDbSymbolTableRecord
100
AcDbDimStyleTableRecord
  2
ISO-25
 70
     0
 41
2.5
 42
0.625
 43
3.75
 44
1.25
 73
     0
 74
     0
 77
     1
 78
     8
140
2.5
141
2.5
143
0.0393700787
147
0.625
171
     3
172
     1
178
     0
271
     2
272
     2
274
     3
278
    44
283
     0
284
     8
340
11
  0
ENDTAB
  0
TABLE
  2
BLOCK_RECORD
  5
1
330
0
100
AcDbSymbolTable
 70
     1
  0
BLOCK_RECORD
  5
1F
330
1
100
AcDbSymbolTableRecord
100
AcDbBlockTableRecord
  2
*Model_Space
340
22
  0
BLOCK_RECORD
  5
1B
330
1
100
AcDbSymbolTableRecord
100
AcDbBlockTableRecord
  2
*Paper_Space
340
1E
  0
BLOCK_RECORD
  5
23
330
1
100
AcDbSymbolTableRecord
100
AcDbBlockTableRecord
  2
*Paper_Space0
340
26
  0
ENDTAB
  0
ENDSEC
  0
SECTION
  2
BLOCKS
  0
BLOCK
  5
20
330
1F
100
AcDbEntity
  8
0
100
AcDbBlockBegin
  2
*Model_Space
 70
     0
 10
0.0
 20
0.0
 30
0.0
  3
*Model_Space
  1

  0
ENDBLK
  5
21
330
1F
100
AcDbEntity
  8
0
100
AcDbBlockEnd
  0
BLOCK
  5
1C
330
1B
100
AcDbEntity
 67
     1
  8
0
100
AcDbBlockBegin
  2
*Paper_Space
 70
     0
 10
0.0
 20
0.0
 30
0.0
  3
*Paper_Space
  1

  0
ENDBLK
  5
1D
330
1B
100
AcDbEntity
 67
     1
  8
0
100
AcDbBlockEnd
  0
BLOCK
  5
24
330
23
100
AcDbEntity
  8
0
100
AcDbBlockBegin
  2
*Paper_Space0
 70
     0
 10
0.0
 20
0.0
 30
0.0
  3
*Paper_Space0
  1

  0
ENDBLK
  5
25
330
23
100
AcDbEntity
  8
0
100
AcDbBlockEnd
  0
ENDSEC
  0
SECTION
  2
ENTITIES
  0
CIRCLE
  5
63
330
1F
100
AcDbEntity
  8
0
  6
Continuous
 62
     7
370
    25
100
AcDbCircle
 10
-30.0
 20
-58.7825604112
 30
0.0
 40
3.000000000000007
  0
CIRCLE
  5
65
330
1F
100
AcDbEntity
  8
0
  6
Continuous
 62
     7
370
    25
100
AcDbCircle
 10
30.0
 20
59.0
 30
0.0
 40
3.000000000000011
  0
CIRCLE
  5
66
330
1F
100
AcDbEntity
  8
0
  6
Continuous
 62
     7
370
    25
100
AcDbCircle
 10
-58.7825604112
 20
30.0
 30
0.0
 40
3.000000000000021
  0
CIRCLE
  5
67
330
1F
100
AcDbEntity
  8
0
  6
Continuous
 62
     7
370
    25
100
AcDbCircle
 10
58.7825604112
 20
-30.0
 30
0.0
 40
3.000000000000014
  0
SPLINE
  5
69
330
1F
100
AcDbEntity
  8
0
  6
Continuous
 62
     7
370
    25
100
AcDbSpline
210
0.0
220
0.0
230
1.0
 70
     8
 71
     3
 72
    42
 73
    38
 74
     0
 42
0.00000001
 43
0.00000001
 40
0.0
 40
0.0
 40
0.0
 40
0.0
 40
0.0625000000000007
 40
0.0625000000000007
 40
0.1250000000000014
 40
0.1250000000000014
 40
0.1875000000000021
 40
0.1875000000000021
 40
0.2500000000000028
 40
0.2500000000000028
 40
0.3750000000000029
 40
0.3750000000000029
 40
0.5000000000000023
 40
0.5000000000000023
 40
0.562500000000002
 40
0.562500000000002
 40
0.6250000000000017
 40
0.6250000000000017
 40
0.6875000000000014
 40
0.6875000000000014
 40
0.7500000000000011
 40
0.7500000000000011
 40
0.7812500000000009
 40
0.7812500000000009
 40
0.8125000000000007
 40
0.8125000000000007
 40
0.8437500000000004
 40
0.8437500000000004
 40
0.8750000000000003
 40
0.8750000000000003
 40
0.9062500000000003
 40
0.9062500000000003
 40
0.9375000000000002
 40
0.9375000000000002
 40
0.9687500000000001
 40
0.9687500000000001
 40
1.0
 40
1.0
 40
1.0
 40
1.0
 10
-72.34855419940608
 20
-24.39281052391399
 30
0.0
 10
-71.76366505978238
 20
-24.9444473049084
 30
0.0
 10
-71.21726591805908
 20
-25.46036478747077
 30
0.0
 10
-70.13192450302175
 20
-26.4115077298931
 30
0.0
 10
-69.59355192715232
 20
-26.84709068139485
 30
0.0
 10
-68.49962036894489
 20
-27.63552929776118
 30
0.0
 10
-67.94462039626028
 20
-27.98848799668344
 30
0.0
 10
-66.8192470207968
 20
-28.60904435750689
 30
0.0
 10
-66.24929804895483
 20
-28.8766294161588
 30
0.0
 10
-64.53606712491941
 20
-29.54521160028898
 30
0.0
 10
-63.39196588108945
 20
-29.81195600013127
 30
0.0
 10
-61.19764544904899
 20
-29.95138838882711
 30
0.0
 10
-60.14638390593607
 20
-29.82796420132484
 30
0.0
 10
-58.67287397713115
 20
-29.29284579052059
 30
0.0
 10
-58.19867420716171
 20
-29.05556369908287
 30
0.0
 10
-57.2908629531422
 20
-28.43144541396831
 30
0.0
 10
-56.85721644598165
 20
-28.04524390363598
 30
0.0
 10
-56.04062462098894
 20
-27.05948626878565
 30
0.0
 10
-55.65773905792398
 20
-26.46082756913603
 30
0.0
 10
-54.95618250725552
 20
-24.93067580172784
 30
0.0
 10
-54.63767787382474
 20
-24.0004088025316
 30
0.0
 10
-54.21823998463197
 20
-22.20033065823385
 30
0.0
 10
-54.08813091299388
 20
-21.53206129714897
 30
0.0
 10
-53.84846394876669
 20
-20.02134683225803
 30
0.0
 10
-53.7389152614944
 20
-19.17896045317074
 30
0.0
 10
-53.54086437363988
 20
-17.27266865117259
 30
0.0
 10
-53.45237205488434
 20
-16.20883047929152
 30
0.0
 10
-53.29597627481959
 20
-13.80064939385505
 30
0.0
 10
-53.22808291446786
 20
-12.45638324421495
 30
0.0
 10
-53.11117288495861
 20
-9.414561842268657
 30
0.0
 10
-53.06216602090689
 20
-7.717093938002983
 30
0.0
 10
-52.97976162150876
 20
-3.879828612748513
 30
0.0
 10
-52.94637304098816
 20
-1.740130278381864
 30
0.0
 10
-52.89009904711479
 20
3.089684279889191
 30
0.0
 10
-52.86722116572931
 20
5.77968844350988
 30
0.0
 10
-52.8247740549338
 20
11.84041326765937
 30
0.0
 10
-52.80521036833678
 20
15.21100758227757
 30
0.0
 10
-52.78256041116676
 20
18.99999999999968
 30
0.0
  0
SPLINE
  5
6C
330
1F
100
AcDbEntity
  8
0
  6
Continuous
 62
     7
370
    25
100
AcDbSpline
210
0.0
220
0.0
230
1.0
 70
     8
 71
     3
 72
    42
 73
    38
 74
     0
 42
0.00000001
 43
0.00000001
 40
0.0
 40
0.0
 40
0.0
 40
0.0
 40
0.0624999999999999
 40
0.0624999999999999
 40
0.1249999999999998
 40
0.1249999999999998
 40
0.1874999999999997
 40
0.1874999999999997
 40
0.2499999999999996
 40
0.2499999999999996
 40
0.3749999999999993
 40
0.3749999999999993
 40
0.4999999999999999
 40
0.4999999999999999
 40
0.5624999999999999
 40
0.5624999999999999
 40
0.6249999999999999
 40
0.6249999999999999
 40
0.6874999999999999
 40
0.6874999999999999
 40
0.7499999999999999
 40
0.7499999999999999
 40
0.7812499999999998
 40
0.7812499999999998
 40
0.8124999999999998
 40
0.8124999999999998
 40
0.8437499999999997
 40
0.8437499999999997
 40
0.8749999999999998
 40
0.8749999999999998
 40
0.9062499999999998
 40
0.9062499999999998
 40
0.9374999999999999
 40
0.9374999999999999
 40
0.9687499999999999
 40
0.9687499999999999
 40
1.0
 40
1.0
 40
1.0
 40
1.0
 10
-24.39281052391352
 20
72.34855419940662
 30
0.0
 10
-24.944447304908
 20
71.76366505978311
 30
0.0
 10
-25.46036478747042
 20
71.2172659180595
 30
0.0
 10
-26.41150772989282
 20
70.13192450302368
 30
0.0
 10
-26.84709068139459
 20
69.59355192701847
 30
0.0
 10
-27.63552929776096
 20
68.49962036948617
 30
0.0
 10
-27.98848799668323
 20
67.94462039496409
 30
0.0
 10
-28.60904435750673
 20
66.81924704545072
 30
0.0
 10
-28.87662941615864
 20
66.24929808351729
 30
0.0
 10
-29.54521160028884
 20
64.53606767789829
 30
0.0
 10
-29.81195600013114
 20
63.39196455244642
 30
0.0
 10
-29.95138838882699
 20
61.19767069329549
 30
0.0
 10
-29.82796420132472
 20
60.14641929649559
 30
0.0
 10
-29.29284579052049
 20
58.67317479687629
 30
0.0
 10
-29.05556369908276
 20
58.19910836639803
 30
0.0
 10
-28.43144541396822
 20
57.29180788794898
 30
0.0
 10
-28.04524390363587
 20
56.85853484700977
 30
0.0
 10
-27.05948626878554
 20
56.0432614230437
 30
0.0
 10
-26.4608275691359
 20
55.66131408668055
 30
0.0
 10
-24.93067580172771
 20
54.9628662566687
 30
0.0
 10
-24.00040880253146
 20
54.6465213314536
 30
0.0
 10
-22.20033065823369
 20
54.23218543704589
 30
0.0
 10
-21.53206129714881
 20
54.10409304929613
 30
0.0
 10
-20.02134683225783
 20
53.869337511623
 30
0.0
 10
-19.17896045317053
 20
53.76268293235874
 30
0.0
 10
-17.27266865117234
 20
53.57162253593449
 30
0.0
 10
-16.20883047929126
 20
53.48722582853173
 30
0.0
 10
-13.80064939385473
 20
53.34064801287422
 30
0.0
 10
-12.45638324421459
 20
53.27847607325915
 30
0.0
 10
-9.41456184226823
 20
53.1751858163958
 30
0.0
 10
-7.717093938002513
 20
53.13407618611483
 30
0.0
 10
-3.879828612747948
 20
53.07034975170539
 30
0.0
 10
-1.740130278381221
 20
53.04774056992579
 30
0.0
 10
3.089684279889969
 20
53.01680845828648
 30
0.0
 10
5.779688443510711
 20
53.008491481897
 30
0.0
 10
11.84041326766041
 20
53.00008541114155
 30
0.0
 10
15.21100758227868
 20
53.0000000000002
 30
0.0
 10
19.00000000000093
 20
53.00000000000021
 30
0.0
  0
SPLINE
  5
6F
330
1F
100
AcDbEntity
  8
0
  6
Continuous
 62
     7
370
    25
100
AcDbSpline
210
0.0
220
0.0
230
1.0
 70
     8
 71
     3
 72
    42
 73
    38
 74
     0
 42
0.00000001
 43
0.00000001
 40
0.0
 40
0.0
 40
0.0
 40
0.0
 40
0.0624999999999996
 40
0.0624999999999996
 40
0.1249999999999991
 40
0.1249999999999991
 40
0.1874999999999987
 40
0.1874999999999987
 40
0.2499999999999983
 40
0.2499999999999983
 40
0.3749999999999986
 40
0.3749999999999986
 40
0.499999999999999
 40
0.499999999999999
 40
0.5624999999999991
 40
0.5624999999999991
 40
0.6249999999999992
 40
0.6249999999999992
 40
0.6874999999999993
 40
0.6874999999999993
 40
0.7499999999999994
 40
0.7499999999999994
 40
0.7812499999999997
 40
0.7812499999999997
 40
0.8124999999999998
 40
0.8124999999999998
 40
0.8437499999999999
 40
0.8437499999999999
 40
0.8749999999999999
 40
0.8749999999999999
 40
0.9062499999999999
 40
0.9062499999999999
 40
0.9374999999999999
 40
0.9374999999999999
 40
0.9687499999999999
 40
0.9687499999999999
 40
1.0
 40
1.0
 40
1.0
 40
1.0
 10
72.34855419940659
 20
24.39281052391371
 30
0.0
 10
71.76366505978302
 20
24.94444730490817
 30
0.0
 10
71.21726591805987
 20
25.46036478747058
 30
0.0
 10
70.13192450302267
 20
26.41150772989296
 30
0.0
 10
69.59355192715324
 20
26.84709068139472
 30
0.0
 10
68.49962036894594
 20
27.63552929776107
 30
0.0
 10
67.94462039626137
 20
27.98848799668334
 30
0.0
 10
66.8192470207979
 20
28.60904435750681
 30
0.0
 10
66.24929804895592
 20
28.87662941615872
 30
0.0
 10
64.53606712492055
 20
29.54521160028892
 30
0.0
 10
63.39196588109063
 20
29.8119560001312
 30
0.0
 10
61.19764544905021
 20
29.95138838882703
 30
0.0
 10
60.14638390593726
 20
29.82796420132477
 30
0.0
 10
58.67287397713237
 20
29.29284579052053
 30
0.0
 10
58.19867420716292
 20
29.0555636990828
 30
0.0
 10
57.29086295314342
 20
28.43144541396824
 30
0.0
 10
56.85721644598285
 20
28.0452439036359
 30
0.0
 10
56.04062462099016
 20
27.05948626878556
 30
0.0
 10
55.65773905792521
 20
26.46082756913592
 30
0.0
 10
54.95618250725673
 20
24.93067580172773
 30
0.0
 10
54.63767787382595
 20
24.0004088025315
 30
0.0
 10
54.21823998463318
 20
22.20033065823372
 30
0.0
 10
54.0881309129951
 20
21.53206129714885
 30
0.0
 10
53.84846394876791
 20
20.02134683225788
 30
0.0
 10
53.73891526149558
 20
19.17896045317059
 30
0.0
 10
53.54086437364109
 20
17.27266865117242
 30
0.0
 10
53.45237205488561
 20
16.20883047929135
 30
0.0
 10
53.29597627482083
 20
13.80064939385485
 30
0.0
 10
53.22808291446908
 20
12.45638324421472
 30
0.0
 10
53.11117288495985
 20
9.414561842268403
 30
0.0
 10
53.06216602090812
 20
7.717093938002715
 30
0.0
 10
52.97976162150999
 20
3.879828612748198
 30
0.0
 10
52.9463730409894
 20
1.740130278381511
 30
0.0
 10
52.89009904711606
 20
-3.089684279889615
 30
0.0
 10
52.86722116573058
 20
-5.779688443510315
 30
0.0
 10
52.82477405493506
 20
-11.84041326765992
 30
0.0
 10
52.80521036833803
 20
-15.21100758227813
 30
0.0
 10
52.78256041116805
 20
-19.00000000000032
 30
0.0
  0
SPLINE
  5
72
330
1F
100
AcDbEntity
  8
0
  6
Continuous
 62
     7
370
    25
100
AcDbSpline
210
0.0
220
0.0
230
1.0
 70
     8
 71
     3
 72
    42
 73
    38
 74
     0
 42
0.00000001
 43
0.00000001
 40
0.0
 40
0.0
 40
0.0
 40
0.0
 40
0.0625
 40
0.0625
 40
0.125
 40
0.125
 40
0.1875
 40
0.1875
 40
0.25
 40
0.25
 40
0.375
 40
0.375
 40
0.4999999999999992
 40
0.4999999999999992
 40
0.5624999999999992
 40
0.5624999999999992
 40
0.6249999999999992
 40
0.6249999999999992
 40
0.6874999999999992
 40
0.6874999999999992
 40
0.7499999999999992
 40
0.7499999999999992
 40
0.7812499999999993
 40
0.7812499999999993
 40
0.8124999999999994
 40
0.8124999999999994
 40
0.8437499999999996
 40
0.8437499999999996
 40
0.8749999999999997
 40
0.8749999999999997
 40
0.9062499999999998
 40
0.9062499999999998
 40
0.9374999999999999
 40
0.9374999999999999
 40
0.96875
 40
0.96875
 40
1.0
 40
1.0
 40
1.0
 40
1.0
 10
24.39281052391511
 20
-72.34855419940577
 30
0.0
 10
24.94444730490958
 20
-71.76366505978227
 30
0.0
 10
25.460364787472
 20
-71.21726591805911
 30
0.0
 10
26.41150772989438
 20
-70.13192450302199
 30
0.0
 10
26.84709068139616
 20
-69.59355192715259
 30
0.0
 10
27.6355292977625
 20
-68.49962036894529
 30
0.0
 10
27.98848799668478
 20
-67.94462039626075
 30
0.0
 10
28.60904435750825
 20
-66.81924702079733
 30
0.0
 10
28.87662941616016
 20
-66.24929804895532
 30
0.0
 10
29.54521160029035
 20
-64.53606712492002
 30
0.0
 10
29.81195600013262
 20
-63.39196588109007
 30
0.0
 10
29.95138838882845
 20
-61.19764544904962
 30
0.0
 10
29.82796420132616
 20
-60.14638390593669
 30
0.0
 10
29.29284579052192
 20
-58.6728739771318
 30
0.0
 10
29.05556369908417
 20
-58.19867420716236
 30
0.0
 10
28.43144541396961
 20
-57.29086295314285
 30
0.0
 10
28.04524390363726
 20
-56.8572164459823
 30
0.0
 10
27.0594862687869
 20
-56.0406246209896
 30
0.0
 10
26.46082756913729
 20
-55.65773905792465
 30
0.0
 10
24.93067580172908
 20
-54.95618250725619
 30
0.0
 10
24.00040880253284
 20
-54.63767787382545
 30
0.0
 10
22.20033065823506
 20
-54.21823998463268
 30
0.0
 10
21.53206129715019
 20
-54.08813091299457
 30
0.0
 10
20.02134683225923
 20
-53.8484639487674
 30
0.0
 10
19.17896045317192
 20
-53.73891526149512
 30
0.0
 10
17.27266865117375
 20
-53.54086437364061
 30
0.0
 10
16.20883047929268
 20
-53.45237205488512
 30
0.0
 10
13.80064939385617
 20
-53.29597627482035
 30
0.0
 10
12.45638324421604
 20
-53.22808291446866
 30
0.0
 10
9.414561842269721
 20
-53.11117288495942
 30
0.0
 10
7.717093938004022
 20
-53.0621660209077
 30
0.0
 10
3.879828612749506
 20
-52.9797616215096
 30
0.0
 10
1.740130278382807
 20
-52.94637304098902
 30
0.0
 10
-3.089684279888329
 20
-52.89009904711571
 30
0.0
 10
-5.779688443509018
 20
-52.86722116573026
 30
0.0
 10
-11.84041326765864
 20
-52.82477405493481
 30
0.0
 10
-15.21100758227688
 20
-52.80521036833777
 30
0.0
 10
-18.99999999999907
 20
-52.78256041116781
 30
0.0
  0
LINE
  5
73
330
1F
100
AcDbEntity
  8
0
  6
Continuous
 62
     7
370
    25
100
AcDbLine
 10
-19.0
 20
-73.9481068047
 30
0.0
 11
-19.0
 21
-52.7825604112
 31
0.0
  0
LINE
  5
74
330
1F
100
AcDbEntity
  8
0
  6
Continuous
 62
     7
370
    25
100
AcDbLine
 10
-73.9481068047
 20
19.0
 30
0.0
 11
-52.7825604112
 21
19.0
 31
0.0
  0
LINE
  5
75
330
1F
100
AcDbEntity
  8
0
  6
Continuous
 62
     7
370
    25
100
AcDbLine
 10
19.0
 20
73.9481068047
 30
0.0
 11
19.0
 21
53.0
 31
0.0
  0
LINE
  5
76
330
1F
100
AcDbEntity
  8
0
  6
Continuous
 62
     7
370
    25
100
AcDbLine
 10
73.9481068047
 20
-19.0
 30
0.0
 11
52.7825604112
 21
-19.0
 31
0.0
  0
ARC
  5
77
330
1F
100
AcDbEntity
  8
0
  6
Continuous
 62
     7
370
    25
100
AcDbCircle
 10
0.0
 20
0.0
 30
0.0
 40
76.35000000000052
100
AcDbArc
 50
198.6318862997
 51
255.5902940693
  0
ARC
  5
78
330
1F
100
AcDbEntity
  8
0
  6
Continuous
 62
     7
370
    25
100
AcDbCircle
 10
0.0
 20
0.0
 30
0.0
 40
76.3500000000004
100
AcDbArc
 50
108.6318862997
 51
165.5902940693
  0
ARC
  5
79
330
1F
100
AcDbEntity
  8
0
  6
Continuous
 62
     7
370
    25
100
AcDbCircle
 10
0.0
 20
0.0
 30
0.0
 40
76.3499999999997
100
AcDbArc
 50
18.6318862997
 51
75.5902940693
  0
ARC
  5
7A
330
1F
100
AcDbEntity
  8
0
  6
Continuous
 62
     7
370
    25
100
AcDbCircle
 10
0.0
 20
0.0
 30
0.0
 40
76.35000000000004
100
AcDbArc
 50
288.6318862997
 51
345.5902940693
  0
MTEXT
  5
7C
330
1F
100
AcDbEntity
  8
0
  6
Continuous
 62
     7
100
AcDbMText
 10
-73.9481068047
 20
-74.9676731964
 30
0.0
 40
4.83362
 41
0.0
 71
     1
 72
     1
  1
SOLIDWORKS Educational Product.
  7
SLDTEXTSTYLE0
 73
     1
 44
1.0
  0
MTEXT
  5
7D
330
1F
100
AcDbEntity
  8
0
  6
Continuous
 62
     7
100
AcDbMText
 10
-73.9481068047
 20
-82.2181031964
 30
0.0
 40
4.83362
 41
0.0
 71
     1
 72
     1
  1
For Instructional Use Only.
  7
SLDTEXTSTYLE0
 73
     1
 44
1.0
  0
ENDSEC
  0
SECTION
  2
OBJECTS
  0
DICTIONARY
  5
C
330
0
100
AcDbDictionary
281
     1
  3
ACAD_GROUP
350
D
  3
ACAD_LAYOUT
350
1A
  3
ACAD_MLINESTYLE
350
17
  3
ACAD_PLOTSETTINGS
350
19
  3
ACAD_PLOTSTYLENAME
350
E
  3
ACAD_SCALELIST
350
47
  3
DWGPROPS
350
7E
  0
DICTIONARY
  5
D
102
{ACAD_REACTORS
330
C
102
}
330
C
100
AcDbDictionary
281
     1
  0
DICTIONARY
  5
1A
102
{ACAD_REACTORS
330
C
102
}
330
C
100
AcDbDictionary
281
     1
  3
Layout1
350
1E
  3
Layout2
350
26
  3
Model
350
22
  0
DICTIONARY
  5
17
102
{ACAD_REACTORS
330
C
102
}
330
C
100
AcDbDictionary
281
     1
  3
Standard
350
18
  0
DICTIONARY
  5
19
102
{ACAD_REACTORS
330
C
102
}
330
C
100
AcDbDictionary
281
     1
  0
ACDBDICTIONARYWDFLT
  5
E
102
{ACAD_REACTORS
330
C
102
}
330
C
100
AcDbDictionary
281
     1
  3
Normal
350
F
100
AcDbDictionaryWithDefault
340
F
  0
DICTIONARY
  5
47
102
{ACAD_REACTORS
330
C
102
}
330
C
100
AcDbDictionary
281
     1
  3
A0
350
48
  3
A1
350
49
  3
A2
350
4A
  3
A3
350
4B
  3
A4
350
4C
  3
A5
350
4D
  3
A6
350
4E
  3
A7
350
4F
  3
A8
350
50
  3
A9
350
51
  3
B0
350
52
  3
B1
350
53
  3
B2
350
54
  3
B3
350
55
  3
B4
350
56
  3
B5
350
57
  3
B6
350
58
  0
XRECORD
  5
7E
102
{ACAD_REACTORS
330
C
102
}
330
C
100
AcDbXrecord
280
     1
  1
DWGPROPS COOKIE
  2

  3

  4

  6

  7

  8
derel
  9

300
=
301
=
302
=
303
=
304
=
305
=
306
=
307
=
308
=
309
=
 40
0.0
 41
2460036.764019375
 42
2460036.764048727
  1

 90
        0
  0
LAYOUT
  5
1E
102
{ACAD_REACTORS
330
1A
102
}
330
1A
100
AcDbPlotSettings
  1

  2
none_device
  4

  6

 40
0.0
 41
0.0
 42
0.0
 43
0.0
 44
0.0
 45
0.0
 46
0.0
 47
0.0
 48
0.0
 49
0.0
140
0.0
141
0.0
142
1.0
143
1.0
 70
   688
 72
     1
 73
     0
 74
     5
  7

 75
    16
147
1.0
148
0.0
149
0.0
100
AcDbLayout
  1
Layout1
 70
     1
 71
     1
 10
0.0
 20
0.0
 11
420.0
 21
297.0
 12
0.0
 22
0.0
 32
0.0
 14
1.0000000000E+20
 24
1.0000000000E+20
 34
1.0000000000E+20
 15
-1.0000000000E+20
 25
-1.0000000000E+20
 35
-1.0000000000E+20
146
0.0
 13
0.0
 23
0.0
 33
0.0
 16
1.0
 26
0.0
 36
0.0
 17
0.0
 27
1.0
 37
0.0
 76
     0
330
1B
  0
LAYOUT
  5
26
102
{ACAD_REACTORS
330
1A
102
}
330
1A
100
AcDbPlotSettings
  1

  2
none_device
  4

  6

 40
0.0
 41
0.0
 42
0.0
 43
0.0
 44
0.0
 45
0.0
 46
0.0
 47
0.0
 48
0.0
 49
0.0
140
0.0
141
0.0
142
1.0
143
1.0
 70
   688
 72
     1
 73
     0
 74
     5
  7

 75
    16
147
1.0
148
0.0
149
0.0
100
AcDbLayout
  1
Layout2
 70
     1
 71
     2
 10
0.0
 20
0.0
 11
0.0
 21
0.0
 12
0.0
 22
0.0
 32
0.0
 14
0.0
 24
0.0
 34
0.0
 15
0.0
 25
0.0
 35
0.0
146
0.0
 13
0.0
 23
0.0
 33
0.0
 16
1.0
 26
0.0
 36
0.0
 17
0.0
 27
1.0
 37
0.0
 76
     0
330
23
  0
LAYOUT
  5
22
102
{ACAD_REACTORS
330
1A
102
}
330
1A
100
AcDbPlotSettings
  1

  2
none_device
  4
ANSI_A_(11.00_x_8.50_Inches)
  6

 40
6.35
 41
19.05
 42
6.35000508
 43
19.05000254
 44
279.4
 45
215.9
 46
133.34999746
 47
88.89999873
 48
0.0
 49
0.0
140
0.0
141
0.0
142
0.0568980084
143
1.0
 70
  1696
 72
     0
 73
     0
 74
     0
  7

 75
     0
147
0.0179189148
148
-1300.4909072572
149
0.0
100
AcDbLayout
  1
Model
 70
     1
 71
     0
 10
0.0
 20
0.0
 11
420.0
 21
297.0
 12
0.0
 22
0.0
 32
0.0
 14
-73.9481068047
 24
-73.9481068047
 34
0.0
 15
73.9481068047
 25
73.9481068047
 35
0.0
146
0.0
 13
0.0
 23
0.0
 33
0.0
 16
1.0
 26
0.0
 36
0.0
 17
0.0
 27
1.0
 37
0.0
 76
     0
330
1F
331
29
  0
MLINESTYLE
  5
18
102
{ACAD_REACTORS
330
17
102
}
330
17
100
AcDbMlineStyle
  2
Standard
 70
     0
  3

 62
   256
 51
90.0
 52
90.0
 71
     2
 49
0.5
 62
   256
  6
BYLAYER
 49
-0.5
 62
   256
  6
BYLAYER
  0
ACDBPLACEHOLDER
  5
F
102
{ACAD_REACTORS
330
E
102
}
330
E
  0
SCALE
  5
48
102
{ACAD_REACTORS
330
47
102
}
330
47
100
AcDbScale
 70
     0
300
1:1
140
1.0
141
1.0
290
     1
  0
SCALE
  5
49
102
{ACAD_REACTORS
330
47
102
}
330
47
100
AcDbScale
 70
     0
300
1:2
140
1.0
141
2.0
290
     0
  0
SCALE
  5
4A
102
{ACAD_REACTORS
330
47
102
}
330
47
100
AcDbScale
 70
     0
300
1:4
140
1.0
141
4.0
290
     0
  0
SCALE
  5
4B
102
{ACAD_REACTORS
330
47
102
}
330
47
100
AcDbScale
 70
     0
300
1:5
140
1.0
141
5.0
290
     0
  0
SCALE
  5
4C
102
{ACAD_REACTORS
330
47
102
}
330
47
100
AcDbScale
 70
     0
300
1:8
140
1.0
141
8.0
290
     0
  0
SCALE
  5
4D
102
{ACAD_REACTORS
330
47
102
}
330
47
100
AcDbScale
 70
     0
300
1:10
140
1.0
141
10.0
290
     0
  0
SCALE
  5
4E
102
{ACAD_REACTORS
330
47
102
}
330
47
100
AcDbScale
 70
     0
300
1:16
140
1.0
141
16.0
290
     0
  0
SCALE
  5
4F
102
{ACAD_REACTORS
330
47
102
}
330
47
100
AcDbScale
 70
     0
300
1:20
140
1.0
141
20.0
290
     0
  0
SCALE
  5
50
102
{ACAD_REACTORS
330
47
102
}
330
47
100
AcDbScale
 70
     0
300
1:30
140
1.0
141
30.0
290
     0
  0
SCALE
  5
51
102
{ACAD_REACTORS
330
47
102
}
330
47
100
AcDbScale
 70
     0
300
1:40
140
1.0
141
40.0
290
     0
  0
SCALE
  5
52
102
{ACAD_REACTORS
330
47
102
}
330
47
100
AcDbScale
 70
     0
300
1:50
140
1.0
141
50.0
290
     0
  0
SCALE
  5
53
102
{ACAD_REACTORS
330
47
102
}
330
47
100
AcDbScale
 70
     0
300
1:100
140
1.0
141
100.0
290
     0
  0
SCALE
  5
54
102
{ACAD_REACTORS
330
47
102
}
330
47
100
AcDbScale
 70
     0
300
2:1
140
2.0
141
1.0
290
     0
  0
SCALE
  5
55
102
{ACAD_REACTORS
330
47
102
}
330
47
100
AcDbScale
 70
     0
300
4:1
140
4.0
141
1.0
290
     0
  0
SCALE
  5
56
102
{ACAD_REACTORS
330
47
102
}
330
47
100
AcDbScale
 70
     0
300
8:1
140
8.0
141
1.0
290
     0
  0
SCALE
  5
57
102
{ACAD_REACTORS
330
47
102
}
330
47
100
AcDbScale
 70
     0
300
10:1
140
10.0
141
1.0
290
     0
  0
SCALE
  5
58
102
{ACAD_REACTORS
330
47
102
}
330
47
100
AcDbScale
 70
     0
300
100:1
140
100.0
141
1.0
290
     0
  0
ENDSEC
  0
EOF
