  0
SECTION
  2
HEADER
  9
$ACADVER
  1
AC1015
  9
$ACADMAINTVER
 70
     6
  9
$DWGCODEPAGE
  3
ANSI_1252
  9
$INSBASE
 10
0.0
 20
0.0
 30
0.0
  9
$EXTMIN
 10
-73.5866835779
 20
-73.5866835779
 30
0.0
  9
$EXTMAX
 10
73.5866835779
 20
73.5866835779
 30
0.0
  9
$LIMMIN
 10
0.0
 20
0.0
  9
$LIMMAX
 10
420.0
 20
297.0
  9
$ORTHOMODE
 70
     0
  9
$REGENMODE
 70
     1
  9
$FILLMODE
 70
     1
  9
$QTEXTMODE
 70
     0
  9
$MIRRTEXT
 70
     1
  9
$LTSCALE
 40
1.0
  9
$ATTMODE
 70
     1
  9
$TEXTSIZE
 40
3.5
  9
$TRACEWID
 40
1.0
  9
$TEXTSTYLE
  7
Standard
  9
$CLAYER
  8
0
  9
$CELTYPE
  6
ByLayer
  9
$CECOLOR
 62
   256
  9
$CELTSCALE
 40
1.0
  9
$DISPSILH
 70
     0
  9
$DIMSCALE
 40
1.0
  9
$DIMASZ
 40
3.302
  9
$DIMEXO
 40
0.0
  9
$DIMDLI
 40
3.75
  9
$DIMRND
 40
0.0
  9
$DIMDLE
 40
0.0
  9
$DIMEXE
 40
1.0
  9
$DIMTP
 40
0.0
  9
$DIMTM
 40
0.0
  9
$DIMTXT
 40
3.5
  9
$DIMCEN
 40
2.5
  9
$DIMTSZ
 40
0.0
  9
$DIMTOL
 70
     0
  9
$DIMLIM
 70
     0
  9
$DIMTIH
 70
     1
  9
$DIMTOH
 70
     1
  9
$DIMSE1
 70
     0
  9
$DIMSE2
 70
     0
  9
$DIMTAD
 70
     1
  9
$DIMZIN
 70
     1
  9
$DIMBLK
  1

  9
$DIMASO
 70
     1
  9
$DIMSHO
 70
     1
  9
$DIMPOST
  1

  9
$DIMAPOST
  1

  9
$DIMALT
 70
     0
  9
$DIMALTD
 70
     3
  9
$DIMALTF
 40
0.0393700787
  9
$DIMLFAC
 40
1.0
  9
$DIMTOFL
 70
     1
  9
$DIMTVP
 40
0.0
  9
$DIMTIX
 70
     0
  9
$DIMSOXD
 70
     0
  9
$DIMSAH
 70
     0
  9
$DIMBLK1
  1

  9
$DIMBLK2
  1

  9
$DIMSTYLE
  2
ISO-25
  9
$DIMCLRD
 70
     0
  9
$DIMCLRE
 70
     0
  9
$DIMCLRT
 70
     0
  9
$DIMTFAC
 40
1.0
  9
$DIMGAP
 40
1.524
  9
$DIMJUST
 70
     0
  9
$DIMSD1
 70
     0
  9
$DIMSD2
 70
     0
  9
$DIMTOLJ
 70
     0
  9
$DIMTZIN
 70
     1
  9
$DIMALTZ
 70
     0
  9
$DIMALTTZ
 70
     0
  9
$DIMUPT
 70
     0
  9
$DIMDEC
 70
     2
  9
$DIMTDEC
 70
     2
  9
$DIMALTU
 70
     2
  9
$DIMALTTD
 70
     3
  9
$DIMTXSTY
  7
Standard
  9
$DIMAUNIT
 70
     0
  9
$DIMADEC
 70
     2
  9
$DIMALTRND
 40
0.0
  9
$DIMAZIN
 70
     0
  9
$DIMDSEP
 70
    44
  9
$DIMATFIT
 70
     3
  9
$DIMFRAC
 70
     0
  9
$DIMLDRBLK
  1

  9
$DIMLUNIT
 70
     2
  9
$DIMLWD
 70
    -2
  9
$DIMLWE
 70
    -2
  9
$DIMTMOVE
 70
     0
  9
$LUNITS
 70
     2
  9
$LUPREC
 70
     2
  9
$SKETCHINC
 40
1.0
  9
$FILLETRAD
 40
0.0
  9
$AUNITS
 70
     0
  9
$AUPREC
 70
     2
  9
$MENU
  1
.
  9
$ELEVATION
 40
0.0
  9
$PELEVATION
 40
0.0
  9
$THICKNESS
 40
0.0
  9
$LIMCHECK
 70
     0
  9
$CHAMFERA
 40
0.0
  9
$CHAMFERB
 40
0.0
  9
$CHAMFERC
 40
0.0
  9
$CHAMFERD
 40
0.0
  9
$SKPOLY
 70
     0
  9
$TDCREATE
 40
2460012.653138206
  9
$TDUCREATE
 40
2460012.653138206
  9
$TDUPDATE
 40
2460012.653190718
  9
$TDUUPDATE
 40
2460012.653190718
  9
$TDINDWG
 40
0.0000000116
  9
$TDUSRTIMER
 40
0.0000000116
  9
$USRTIMER
 70
     1
  9
$ANGBASE
 50
0.0
  9
$ANGDIR
 70
     0
  9
$PDMODE
 70
     0
  9
$PDSIZE
 40
-1.0
  9
$PLINEWID
 40
0.0
  9
$SPLFRAME
 70
     0
  9
$SPLINETYPE
 70
     6
  9
$SPLINESEGS
 70
     8
  9
$HANDSEED
  5
7C
  9
$SURFTAB1
 70
     6
  9
$SURFTAB2
 70
     6
  9
$SURFTYPE
 70
     6
  9
$SURFU
 70
     6
  9
$SURFV
 70
     6
  9
$UCSBASE
  2

  9
$UCSNAME
  2

  9
$UCSORG
 10
0.0
 20
0.0
 30
0.0
  9
$UCSXDIR
 10
1.0
 20
0.0
 30
0.0
  9
$UCSYDIR
 10
0.0
 20
1.0
 30
0.0
  9
$UCSORTHOREF
  2

  9
$UCSORTHOVIEW
 70
     0
  9
$UCSORGTOP
 10
0.0
 20
0.0
 30
0.0
  9
$UCSORGBOTTOM
 10
0.0
 20
0.0
 30
0.0
  9
$UCSORGLEFT
 10
0.0
 20
0.0
 30
0.0
  9
$UCSORGRIGHT
 10
0.0
 20
0.0
 30
0.0
  9
$UCSORGFRONT
 10
0.0
 20
0.0
 30
0.0
  9
$UCSORGBACK
 10
0.0
 20
0.0
 30
0.0
  9
$PUCSBASE
  2

  9
$PUCSNAME
  2

  9
$PUCSORG
 10
0.0
 20
0.0
 30
0.0
  9
$PUCSXDIR
 10
1.0
 20
0.0
 30
0.0
  9
$PUCSYDIR
 10
0.0
 20
1.0
 30
0.0
  9
$PUCSORTHOREF
  2

  9
$PUCSORTHOVIEW
 70
     0
  9
$PUCSORGTOP
 10
0.0
 20
0.0
 30
0.0
  9
$PUCSORGBOTTOM
 10
0.0
 20
0.0
 30
0.0
  9
$PUCSORGLEFT
 10
0.0
 20
0.0
 30
0.0
  9
$PUCSORGRIGHT
 10
0.0
 20
0.0
 30
0.0
  9
$PUCSORGFRONT
 10
0.0
 20
0.0
 30
0.0
  9
$PUCSORGBACK
 10
0.0
 20
0.0
 30
0.0
  9
$USERI1
 70
     0
  9
$USERI2
 70
     0
  9
$USERI3
 70
     0
  9
$USERI4
 70
     0
  9
$USERI5
 70
     0
  9
$USERR1
 40
0.0
  9
$USERR2
 40
0.0
  9
$USERR3
 40
0.0
  9
$USERR4
 40
0.0
  9
$USERR5
 40
0.0
  9
$WORLDVIEW
 70
     1
  9
$SHADEDGE
 70
     3
  9
$SHADEDIF
 70
    70
  9
$TILEMODE
 70
     1
  9
$MAXACTVP
 70
    64
  9
$PINSBASE
 10
0.0
 20
0.0
 30
0.0
  9
$PLIMCHECK
 70
     0
  9
$PEXTMIN
 10
1.0000000000E+20
 20
1.0000000000E+20
 30
1.0000000000E+20
  9
$PEXTMAX
 10
-1.0000000000E+20
 20
-1.0000000000E+20
 30
-1.0000000000E+20
  9
$PLIMMIN
 10
0.0
 20
0.0
  9
$PLIMMAX
 10
420.0
 20
297.0
  9
$UNITMODE
 70
     0
  9
$VISRETAIN
 70
     1
  9
$PLINEGEN
 70
     0
  9
$PSLTSCALE
 70
     1
  9
$TREEDEPTH
 70
  3020
  9
$CMLSTYLE
  2
Standard
  9
$CMLJUST
 70
     0
  9
$CMLSCALE
 40
20.0
  9
$PROXYGRAPHICS
 70
     1
  9
$MEASUREMENT
 70
     1
  9
$CELWEIGHT
370
    -1
  9
$ENDCAPS
280
     0
  9
$JOINSTYLE
280
     0
  9
$LWDISPLAY
290
     1
  9
$INSUNITS
 70
     4
  9
$HYPERLINKBASE
  1

  9
$STYLESHEET
  1

  9
$XEDIT
290
     1
  9
$CEPSNTYPE
380
     0
  9
$PSTYLEMODE
290
     1
  9
$FINGERPRINTGUID
  2
{3842cd12-9cc9-4db9-947b-4d34516d4fdc}
  9
$VERSIONGUID
  2
{FAEB1C32-E019-11D5-929B-00C0DF256EC4}
  9
$EXTNAMES
290
     1
  9
$PSVPSCALE
 40
0.0
  9
$OLESTARTUP
290
     0
  0
ENDSEC
  0
SECTION
  2
CLASSES
  0
CLASS
  1
ACDBDICTIONARYWDFLT
  2
AcDbDictionaryWithDefault
  3
ObjectDBX Classes
 90
        0
280
     0
281
     0
  0
CLASS
  1
VISUALSTYLE
  2
AcDbVisualStyle
  3
ObjectDBX Classes
 90
     4095
280
     0
281
     0
  0
CLASS
  1
MATERIAL
  2
AcDbMaterial
  3
ObjectDBX Classes
 90
     1153
280
     0
281
     0
  0
CLASS
  1
SCALE
  2
AcDbScale
  3
ObjectDBX Classes
 90
     1153
280
     0
281
     0
  0
CLASS
  1
TABLESTYLE
  2
AcDbTableStyle
  3
ObjectDBX Classes
 90
     4095
280
     0
281
     0
  0
CLASS
  1
MLEADERSTYLE
  2
AcDbMLeaderStyle
  3
ACDB_MLEADERSTYLE_CLASS
 90
     4095
280
     0
281
     0
  0
CLASS
  1
SUN
  2
AcDbSun
  3
SCENEOE
 90
     1153
280
     0
281
     0
  0
CLASS
  1
ACDBPLACEHOLDER
  2
AcDbPlaceHolder
  3
ObjectDBX Classes
 90
        0
280
     0
281
     0
  0
CLASS
  1
LAYOUT
  2
AcDbLayout
  3
ObjectDBX Classes
 90
        0
280
     0
281
     0
  0
ENDSEC
  0
SECTION
  2
TABLES
  0
TABLE
  2
VPORT
  5
8
330
0
100
AcDbSymbolTable
 70
     1
  0
VPORT
  5
29
330
8
100
AcDbSymbolTableRecord
100
AcDbViewportTableRecord
  2
*Active
 70
     0
 10
0.0
 20
0.0
 11
1.0
 21
1.0
 12
0.0
 22
0.0
 13
0.0
 23
0.0
 14
10.0
 24
10.0
 15
10.0
 25
10.0
 16
0.0
 26
0.0
 36
1.0
 17
0.0
 27
0.0
 37
0.0
 40
150.116834499
 41
1.0
 42
50.0
 43
0.0
 44
0.0
 50
0.0
 51
0.0
 71
     0
 72
   100
 73
     1
 74
     3
 75
     0
 76
     0
 77
     0
 78
     0
281
     0
 65
     1
110
0.0
120
0.0
130
0.0
111
1.0
121
0.0
131
0.0
112
0.0
122
1.0
132
0.0
 79
     0
146
0.0
  0
ENDTAB
  0
TABLE
  2
LTYPE
  5
5
330
0
100
AcDbSymbolTable
 70
     6
  0
LTYPE
  5
14
330
5
100
AcDbSymbolTableRecord
100
AcDbLinetypeTableRecord
  2
ByBlock
 70
     0
  3

 72
    65
 73
     0
 40
0.0
  0
LTYPE
  5
15
330
5
100
AcDbSymbolTableRecord
100
AcDbLinetypeTableRecord
  2
ByLayer
 70
     0
  3

 72
    65
 73
     0
 40
0.0
  0
LTYPE
  5
16
330
5
100
AcDbSymbolTableRecord
100
AcDbLinetypeTableRecord
  2
Continuous
 70
     0
  3
Solid line
 72
    65
 73
     0
 40
0.0
  0
LTYPE
  5
5E
330
5
100
AcDbSymbolTableRecord
100
AcDbLinetypeTableRecord
  2
HIDDEN
 70
     0
  3
Hidden __ __ __ __ __ __ __ __ __ __ __ __ __ __
 72
    65
 73
     2
 40
1.905
 49
1.27
 74
     0
 49
-0.635
 74
     0
  0
LTYPE
  5
5F
330
5
100
AcDbSymbolTableRecord
100
AcDbLinetypeTableRecord
  2
PHANTOM
 70
     0
  3
Phantom ______  __  __  ______  __  __  ______
 72
    65
 73
     6
 40
12.7
 49
6.35
 74
     0
 49
-1.27
 74
     0
 49
1.27
 74
     0
 49
-1.27
 74
     0
 49
1.27
 74
     0
 49
-1.27
 74
     0
  0
LTYPE
  5
60
330
5
100
AcDbSymbolTableRecord
100
AcDbLinetypeTableRecord
  2
CENTER
 70
     0
  3
Center ____ _ ____ _ ____ _ ____ _ ____ _ ____
 72
    65
 73
     4
 40
10.16
 49
6.35
 74
     0
 49
-1.27
 74
     0
 49
1.27
 74
     0
 49
-1.27
 74
     0
  0
LTYPE
  5
61
330
5
100
AcDbSymbolTableRecord
100
AcDbLinetypeTableRecord
  2
CENTERX2
 70
     0
  3
Center (2x) ________  __  ________  __  _____
 72
    65
 73
     4
 40
20.32
 49
12.7
 74
     0
 49
-2.54
 74
     0
 49
2.54
 74
     0
 49
-2.54
 74
     0
  0
LTYPE
  5
62
330
5
100
AcDbSymbolTableRecord
100
AcDbLinetypeTableRecord
  2
DOT2
 70
     0
  3
Dot (.5x) ........................................
 72
    65
 73
     2
 40
0.635
 49
0.0
 74
     0
 49
-0.635
 74
     0
  0
ENDTAB
  0
TABLE
  2
LAYER
  5
2
330
0
100
AcDbSymbolTable
 70
     1
  0
LAYER
  5
10
330
2
100
AcDbSymbolTableRecord
100
AcDbLayerTableRecord
  2
0
 70
     0
 62
     7
  6
Continuous
370
    -3
390
F
  0
ENDTAB
  0
TABLE
  2
STYLE
  5
3
330
0
100
AcDbSymbolTable
 70
     1
  0
STYLE
  5
11
330
3
100
AcDbSymbolTableRecord
100
AcDbTextStyleTableRecord
  2
Standard
 70
     0
 40
0.0
 41
1.0
 50
0.0
 71
     0
 42
3.5
  3
txt
  4

  0
ENDTAB
  0
TABLE
  2
VIEW
  5
6
330
0
100
AcDbSymbolTable
 70
     0
  0
ENDTAB
  0
TABLE
  2
UCS
  5
7
330
0
100
AcDbSymbolTable
 70
     0
  0
ENDTAB
  0
TABLE
  2
APPID
  5
9
330
0
100
AcDbSymbolTable
 70
     1
  0
APPID
  5
12
330
9
100
AcDbSymbolTableRecord
100
AcDbRegAppTableRecord
  2
ACAD
 70
     0
  0
ENDTAB
  0
TABLE
  2
DIMSTYLE
  5
A
330
0
100
AcDbSymbolTable
 70
     1
100
AcDbDimStyleTable
  0
DIMSTYLE
105
27
330
A
100
AcDbSymbolTableRecord
100
AcDbDimStyleTableRecord
  2
ISO-25
 70
     0
 41
2.5
 42
0.625
 43
3.75
 44
1.25
 73
     0
 74
     0
 77
     1
 78
     8
140
2.5
141
2.5
143
0.0393700787
147
0.625
171
     3
172
     1
178
     0
271
     2
272
     2
274
     3
278
    44
283
     0
284
     8
340
11
  0
ENDTAB
  0
TABLE
  2
BLOCK_RECORD
  5
1
330
0
100
AcDbSymbolTable
 70
     1
  0
BLOCK_RECORD
  5
1F
330
1
100
AcDbSymbolTableRecord
100
AcDbBlockTableRecord
  2
*Model_Space
340
22
  0
BLOCK_RECORD
  5
1B
330
1
100
AcDbSymbolTableRecord
100
AcDbBlockTableRecord
  2
*Paper_Space
340
1E
  0
BLOCK_RECORD
  5
23
330
1
100
AcDbSymbolTableRecord
100
AcDbBlockTableRecord
  2
*Paper_Space0
340
26
  0
ENDTAB
  0
ENDSEC
  0
SECTION
  2
BLOCKS
  0
BLOCK
  5
20
330
1F
100
AcDbEntity
  8
0
100
AcDbBlockBegin
  2
*Model_Space
 70
     0
 10
0.0
 20
0.0
 30
0.0
  3
*Model_Space
  1

  0
ENDBLK
  5
21
330
1F
100
AcDbEntity
  8
0
100
AcDbBlockEnd
  0
BLOCK
  5
1C
330
1B
100
AcDbEntity
 67
     1
  8
0
100
AcDbBlockBegin
  2
*Paper_Space
 70
     0
 10
0.0
 20
0.0
 30
0.0
  3
*Paper_Space
  1

  0
ENDBLK
  5
1D
330
1B
100
AcDbEntity
 67
     1
  8
0
100
AcDbBlockEnd
  0
BLOCK
  5
24
330
23
100
AcDbEntity
  8
0
100
AcDbBlockBegin
  2
*Paper_Space0
 70
     0
 10
0.0
 20
0.0
 30
0.0
  3
*Paper_Space0
  1

  0
ENDBLK
  5
25
330
23
100
AcDbEntity
  8
0
100
AcDbBlockEnd
  0
ENDSEC
  0
SECTION
  2
ENTITIES
  0
CIRCLE
  5
63
330
1F
100
AcDbEntity
  8
0
  6
Continuous
 62
     7
370
    25
100
AcDbCircle
 10
-30.0
 20
-58.7825604112
 30
0.0
 40
3.000000000000007
  0
CIRCLE
  5
65
330
1F
100
AcDbEntity
  8
0
  6
Continuous
 62
     7
370
    25
100
AcDbCircle
 10
30.0
 20
59.0
 30
0.0
 40
3.000000000000011
  0
CIRCLE
  5
66
330
1F
100
AcDbEntity
  8
0
  6
Continuous
 62
     7
370
    25
100
AcDbCircle
 10
-58.7825604112
 20
30.0
 30
0.0
 40
3.000000000000021
  0
CIRCLE
  5
67
330
1F
100
AcDbEntity
  8
0
  6
Continuous
 62
     7
370
    25
100
AcDbCircle
 10
58.7825604112
 20
-30.0
 30
0.0
 40
3.000000000000014
  0
SPLINE
  5
69
330
1F
100
AcDbEntity
  8
0
  6
Continuous
 62
     7
370
    25
100
AcDbSpline
210
0.0
220
0.0
230
1.0
 70
     8
 71
     3
 72
    42
 73
    38
 74
     0
 42
0.00000001
 43
0.00000001
 40
0.0
 40
0.0
 40
0.0
 40
0.0
 40
0.0624999999999997
 40
0.0624999999999997
 40
0.1249999999999994
 40
0.1249999999999994
 40
0.1874999999999991
 40
0.1874999999999991
 40
0.2499999999999988
 40
0.2499999999999988
 40
0.3749999999999996
 40
0.3749999999999996
 40
0.5000000000000003
 40
0.5000000000000003
 40
0.5625000000000003
 40
0.5625000000000003
 40
0.6250000000000004
 40
0.6250000000000004
 40
0.6875000000000004
 40
0.6875000000000004
 40
0.7500000000000004
 40
0.7500000000000004
 40
0.7812500000000004
 40
0.7812500000000004
 40
0.8125000000000004
 40
0.8125000000000004
 40
0.8437500000000004
 40
0.8437500000000004
 40
0.8750000000000003
 40
0.8750000000000003
 40
0.9062500000000003
 40
0.9062500000000003
 40
0.9375000000000003
 40
0.9375000000000003
 40
0.9687500000000001
 40
0.9687500000000001
 40
1.0
 40
1.0
 40
1.0
 40
1.0
 10
-72.01689743490233
 20
-24.28099017442619
 30
0.0
 10
-71.50110345455025
 20
-24.85592286156389
 30
0.0
 10
-71.00467152840211
 20
-25.38868713305552
 30
0.0
 10
-69.99663716414912
 20
-26.36589467708339
 30
0.0
 10
-69.48552713407271
 20
-26.81066938260548
 30
0.0
 10
-68.43314357320361
 20
-27.61311619081386
 30
0.0
 10
-67.89237427799686
 20
-27.97087286010591
 30
0.0
 10
-66.78832584876332
 20
-28.59861907259367
 30
0.0
 10
-66.2254333025111
 20
-28.86858325345875
 30
0.0
 10
-64.52776634354771
 20
-29.542412935002
 30
0.0
 10
-63.3869385465874
 20
-29.81026099987444
 30
0.0
 10
-61.19663998214857
 20
-29.95104938877572
 30
0.0
 10
-60.14579011941105
 20
-29.82776400213141
 30
0.0
 10
-58.67268504505503
 20
-29.29278209077724
 30
0.0
 10
-58.19854842709165
 20
-29.05552129147085
 30
0.0
 10
-57.29081832150445
 20
-28.43143036610599
 30
0.0
 10
-56.85718807417032
 20
-28.04523433788549
 30
0.0
 10
-56.04061651475714
 20
-27.05948353571408
 30
0.0
 10
-55.65773414841765
 20
-26.46082591386233
 30
0.0
 10
-54.95618152535425
 20
-24.93067547067311
 30
0.0
 10
-54.6376772939551
 20
-24.00040860702458
 30
0.0
 10
-54.218239800128
 20
-22.20033059602707
 30
0.0
 10
-54.08813079016179
 20
-21.53206125573529
 30
0.0
 10
-53.84846390518111
 20
-20.02134681756285
 30
0.0
 10
-53.73891523378754
 20
-19.17896044382918
 30
0.0
 10
-53.54086436572366
 20
-17.27266864850357
 30
0.0
 10
-53.45237205008991
 20
-16.20883047767505
 30
0.0
 10
-53.29597627386069
 20
-13.80064939353175
 30
0.0
 10
-53.22808291390157
 20
-12.45638324402403
 30
0.0
 10
-53.1111728849071
 20
-9.414561842251304
 30
0.0
 10
-53.06216602087016
 20
-7.717093937990605
 30
0.0
 10
-52.97976162151069
 20
-3.879828612749168
 30
0.0
 10
-52.94637304098735
 20
-1.740130278381588
 30
0.0
 10
-52.89009904711498
 20
3.089684279889141
 30
0.0
 10
-52.8672211657293
 20
5.779688443509857
 30
0.0
 10
-52.8247740549338
 20
11.84041326765937
 30
0.0
 10
-52.80521036833677
 20
15.21100758227757
 30
0.0
 10
-52.78256041116676
 20
18.99999999999968
 30
0.0
  0
SPLINE
  5
6C
330
1F
100
AcDbEntity
  8
0
  6
Continuous
 62
     7
370
    25
100
AcDbSpline
210
0.0
220
0.0
230
1.0
 70
     8
 71
     3
 72
    42
 73
    38
 74
     0
 42
0.00000001
 43
0.00000001
 40
0.0
 40
0.0
 40
0.0
 40
0.0
 40
0.0625000000000001
 40
0.0625000000000001
 40
0.1250000000000002
 40
0.1250000000000002
 40
0.1875000000000003
 40
0.1875000000000003
 40
0.2500000000000004
 40
0.2500000000000004
 40
0.3750000000000007
 40
0.3750000000000007
 40
0.5000000000000001
 40
0.5000000000000001
 40
0.5625000000000002
 40
0.5625000000000002
 40
0.6250000000000003
 40
0.6250000000000003
 40
0.6875000000000004
 40
0.6875000000000004
 40
0.7500000000000006
 40
0.7500000000000006
 40
0.7812500000000004
 40
0.7812500000000004
 40
0.8125000000000004
 40
0.8125000000000004
 40
0.8437500000000003
 40
0.8437500000000003
 40
0.8750000000000003
 40
0.8750000000000003
 40
0.9062500000000002
 40
0.9062500000000002
 40
0.9375000000000002
 40
0.9375000000000002
 40
0.9687500000000001
 40
0.9687500000000001
 40
1.0
 40
1.0
 40
1.0
 40
1.0
 10
-24.28099017442603
 20
72.01689743490378
 30
0.0
 10
-24.85592286156375
 20
71.50110345455168
 30
0.0
 10
-25.38868713305536
 20
71.00467152840314
 30
0.0
 10
-26.36589467708324
 20
69.99663716415144
 30
0.0
 10
-26.81066938260533
 20
69.48552713393917
 30
0.0
 10
-27.61311619081372
 20
68.43314357374507
 30
0.0
 10
-27.97087286010576
 20
67.89237427670082
 30
0.0
 10
-28.59861907259352
 20
66.78832587341738
 30
0.0
 10
-28.8685832534586
 20
66.22543333707367
 30
0.0
 10
-29.54241293500188
 20
64.52776689652659
 30
0.0
 10
-29.81026099987432
 20
63.38693721794438
 30
0.0
 10
-29.95104938877561
 20
61.19666522639507
 30
0.0
 10
-29.8277640021313
 20
60.14582550997059
 30
0.0
 10
-29.29278209077713
 20
58.67298586480016
 30
0.0
 10
-29.05552129147074
 20
58.19898258632797
 30
0.0
 10
-28.43143036610589
 20
57.29176325631122
 30
0.0
 10
-28.04523433788538
 20
56.85850647519843
 30
0.0
 10
-27.05948353571397
 20
56.04325331681189
 30
0.0
 10
-26.46082591386222
 20
55.6613091771742
 30
0.0
 10
-24.93067547067297
 20
54.96286527476742
 30
0.0
 10
-24.00040860702445
 20
54.64652075158396
 30
0.0
 10
-22.2003305960269
 20
54.23218525254191
 30
0.0
 10
-21.53206125573513
 20
54.10409292646402
 30
0.0
 10
-20.02134681756265
 20
53.86933746803741
 30
0.0
 10
-19.17896044382898
 20
53.76268290465189
 30
0.0
 10
-17.27266864850332
 20
53.57162252801827
 30
0.0
 10
-16.20883047767479
 20
53.4872258237373
 30
0.0
 10
-13.80064939353143
 20
53.34064801191536
 30
0.0
 10
-12.45638324402366
 20
53.27847607269287
 30
0.0
 10
-9.414561842250869
 20
53.17518581634431
 30
0.0
 10
-7.717093937990137
 20
53.13407618607812
 30
0.0
 10
-3.879828612748595
 20
53.07034975170735
 30
0.0
 10
-1.740130278380953
 20
53.04774056992499
 30
0.0
 10
3.089684279889893
 20
53.01680845828667
 30
0.0
 10
5.77968844351072
 20
53.00849148189699
 30
0.0
 10
11.8404132676604
 20
53.00008541114158
 30
0.0
 10
15.2110075822787
 20
53.00000000000021
 30
0.0
 10
19.00000000000106
 20
53.00000000000021
 30
0.0
  0
SPLINE
  5
6F
330
1F
100
AcDbEntity
  8
0
  6
Continuous
 62
     7
370
    25
100
AcDbSpline
210
0.0
220
0.0
230
1.0
 70
     8
 71
     3
 72
    42
 73
    38
 74
     0
 42
0.00000001
 43
0.00000001
 40
0.0
 40
0.0
 40
0.0
 40
0.0
 40
0.0625000000000005
 40
0.0625000000000005
 40
0.125000000000001
 40
0.125000000000001
 40
0.1875000000000016
 40
0.1875000000000016
 40
0.2500000000000021
 40
0.2500000000000021
 40
0.3750000000000016
 40
0.3750000000000016
 40
0.500000000000002
 40
0.500000000000002
 40
0.5625000000000018
 40
0.5625000000000018
 40
0.6250000000000014
 40
0.6250000000000014
 40
0.6875000000000012
 40
0.6875000000000012
 40
0.7500000000000009
 40
0.7500000000000009
 40
0.7812500000000008
 40
0.7812500000000008
 40
0.8125000000000006
 40
0.8125000000000006
 40
0.8437500000000003
 40
0.8437500000000003
 40
0.8750000000000003
 40
0.8750000000000003
 40
0.9062500000000002
 40
0.9062500000000002
 40
0.9375000000000001
 40
0.9375000000000001
 40
0.9687500000000001
 40
0.9687500000000001
 40
1.0
 40
1.0
 40
1.0
 40
1.0
 10
72.01689743490353
 20
24.28099017442615
 30
0.0
 10
71.50110345455145
 20
24.85592286156385
 30
0.0
 10
71.00467152840334
 20
25.38868713305547
 30
0.0
 10
69.99663716415033
 20
26.36589467708334
 30
0.0
 10
69.48552713407389
 20
26.81066938260543
 30
0.0
 10
68.43314357320477
 20
27.61311619081381
 30
0.0
 10
67.89237427799806
 20
27.97087286010586
 30
0.0
 10
66.7883258487645
 20
28.5986190725936
 30
0.0
 10
66.2254333025123
 20
28.86858325345868
 30
0.0
 10
64.52776634354886
 20
29.54241293500194
 30
0.0
 10
63.38693854658861
 20
29.81026099987439
 30
0.0
 10
61.1966399821498
 20
29.95104938877567
 30
0.0
 10
60.14579011941226
 20
29.82776400213135
 30
0.0
 10
58.67268504505624
 20
29.29278209077717
 30
0.0
 10
58.19854842709285
 20
29.05552129147076
 30
0.0
 10
57.29081832150565
 20
28.43143036610591
 30
0.0
 10
56.85718807417152
 20
28.0452343378854
 30
0.0
 10
56.04061651475836
 20
27.05948353571399
 30
0.0
 10
55.65773414841885
 20
26.46082591386223
 30
0.0
 10
54.95618152535548
 20
24.93067547067299
 30
0.0
 10
54.63767729395629
 20
24.00040860702447
 30
0.0
 10
54.21823980012922
 20
22.20033059602695
 30
0.0
 10
54.08813079016301
 20
21.53206125573517
 30
0.0
 10
53.84846390518231
 20
20.02134681756271
 30
0.0
 10
53.73891523378873
 20
19.17896044382903
 30
0.0
 10
53.54086436572484
 20
17.27266864850341
 30
0.0
 10
53.45237205009116
 20
16.20883047767487
 30
0.0
 10
53.29597627386195
 20
13.80064939353155
 30
0.0
 10
53.22808291390282
 20
12.4563832440238
 30
0.0
 10
53.11117288490837
 20
9.41456184225105
 30
0.0
 10
53.06216602087141
 20
7.717093937990341
 30
0.0
 10
52.97976162151195
 20
3.879828612748848
 30
0.0
 10
52.9463730409886
 20
1.740130278381244
 30
0.0
 10
52.89009904711627
 20
-3.089684279889546
 30
0.0
 10
52.86722116573057
 20
-5.779688443510314
 30
0.0
 10
52.82477405493508
 20
-11.8404132676599
 30
0.0
 10
52.80521036833805
 20
-15.21100758227816
 30
0.0
 10
52.78256041116805
 20
-19.00000000000032
 30
0.0
  0
SPLINE
  5
72
330
1F
100
AcDbEntity
  8
0
  6
Continuous
 62
     7
370
    25
100
AcDbSpline
210
0.0
220
0.0
230
1.0
 70
     8
 71
     3
 72
    42
 73
    38
 74
     0
 42
0.00000001
 43
0.00000001
 40
0.0
 40
0.0
 40
0.0
 40
0.0
 40
0.0625000000000003
 40
0.0625000000000003
 40
0.1250000000000006
 40
0.1250000000000006
 40
0.1875000000000009
 40
0.1875000000000009
 40
0.2500000000000012
 40
0.2500000000000012
 40
0.3750000000000005
 40
0.3750000000000005
 40
0.4999999999999998
 40
0.4999999999999998
 40
0.5624999999999999
 40
0.5624999999999999
 40
0.6249999999999999
 40
0.6249999999999999
 40
0.6875
 40
0.6875
 40
0.7500000000000001
 40
0.7500000000000001
 40
0.7812500000000001
 40
0.7812500000000001
 40
0.8125000000000002
 40
0.8125000000000002
 40
0.8437500000000002
 40
0.8437500000000002
 40
0.8750000000000002
 40
0.8750000000000002
 40
0.9062500000000002
 40
0.9062500000000002
 40
0.9375000000000001
 40
0.9375000000000001
 40
0.9687500000000001
 40
0.9687500000000001
 40
1.0
 40
1.0
 40
1.0
 40
1.0
 10
24.28099017442764
 20
-72.01689743490302
 30
0.0
 10
24.85592286156534
 20
-71.50110345455091
 30
0.0
 10
25.38868713305695
 20
-71.00467152840281
 30
0.0
 10
26.36589467708481
 20
-69.9966371641498
 30
0.0
 10
26.81066938260688
 20
-69.48552713407332
 30
0.0
 10
27.61311619081525
 20
-68.43314357320423
 30
0.0
 10
27.9708728601073
 20
-67.8923742779975
 30
0.0
 10
28.59861907259504
 20
-66.78832584876398
 30
0.0
 10
28.86858325346012
 20
-66.2254333025117
 30
0.0
 10
29.54241293500337
 20
-64.5277663435483
 30
0.0
 10
29.81026099987579
 20
-63.386938546588
 30
0.0
 10
29.95104938877707
 20
-61.19663998214921
 30
0.0
 10
29.82776400213274
 20
-60.14579011941169
 30
0.0
 10
29.29278209077856
 20
-58.67268504505565
 30
0.0
 10
29.05552129147215
 20
-58.19854842709228
 30
0.0
 10
28.43143036610728
 20
-57.29081832150509
 30
0.0
 10
28.04523433788676
 20
-56.85718807417098
 30
0.0
 10
27.05948353571534
 20
-56.0406165147578
 30
0.0
 10
26.4608259138636
 20
-55.65773414841833
 30
0.0
 10
24.93067547067435
 20
-54.95618152535495
 30
0.0
 10
24.00040860702583
 20
-54.6376772939558
 30
0.0
 10
22.20033059602829
 20
-54.21823980012871
 30
0.0
 10
21.53206125573651
 20
-54.0881307901625
 30
0.0
 10
20.02134681756404
 20
-53.84846390518181
 30
0.0
 10
19.17896044383037
 20
-53.73891523378826
 30
0.0
 10
17.27266864850474
 20
-53.5408643657244
 30
0.0
 10
16.20883047767621
 20
-53.45237205009068
 30
0.0
 10
13.80064939353287
 20
-53.29597627386148
 30
0.0
 10
12.45638324402512
 20
-53.22808291390238
 30
0.0
 10
9.414561842252361
 20
-53.11117288490795
 30
0.0
 10
7.717093937991644
 20
-53.062166020871
 30
0.0
 10
3.87982861275015
 20
-52.97976162151155
 30
0.0
 10
1.740130278382545
 20
-52.94637304098825
 30
0.0
 10
-3.089684279888253
 20
-52.89009904711592
 30
0.0
 10
-5.779688443509028
 20
-52.86722116573026
 30
0.0
 10
-11.84041326765863
 20
-52.82477405493483
 30
0.0
 10
-15.21100758227689
 20
-52.8052103683378
 30
0.0
 10
-18.99999999999911
 20
-52.78256041116781
 30
0.0
  0
LINE
  5
73
330
1F
100
AcDbEntity
  8
0
  6
Continuous
 62
     7
370
    25
100
AcDbLine
 10
-19.0
 20
-73.5866835779
 30
0.0
 11
-19.0
 21
-52.7825604112
 31
0.0
  0
LINE
  5
74
330
1F
100
AcDbEntity
  8
0
  6
Continuous
 62
     7
370
    25
100
AcDbLine
 10
-73.5866835779
 20
19.0
 30
0.0
 11
-52.7825604112
 21
19.0
 31
0.0
  0
LINE
  5
75
330
1F
100
AcDbEntity
  8
0
  6
Continuous
 62
     7
370
    25
100
AcDbLine
 10
19.0
 20
73.5866835779
 30
0.0
 11
19.0
 21
53.0
 31
0.0
  0
LINE
  5
76
330
1F
100
AcDbEntity
  8
0
  6
Continuous
 62
     7
370
    25
100
AcDbLine
 10
73.5866835779
 20
-19.0
 30
0.0
 11
52.7825604112
 21
-19.0
 31
0.0
  0
ARC
  5
77
330
1F
100
AcDbEntity
  8
0
  6
Continuous
 62
     7
370
    25
100
AcDbCircle
 10
0.0
 20
0.0
 30
0.0
 40
76.00000000000247
100
AcDbArc
 50
198.6318862997
 51
255.5224878141
  0
ARC
  5
78
330
1F
100
AcDbEntity
  8
0
  6
Continuous
 62
     7
370
    25
100
AcDbCircle
 10
0.0
 20
0.0
 30
0.0
 40
76.00000000000034
100
AcDbArc
 50
108.6318862997
 51
165.5224878141
  0
ARC
  5
79
330
1F
100
AcDbEntity
  8
0
  6
Continuous
 62
     7
370
    25
100
AcDbCircle
 10
0.0
 20
0.0
 30
0.0
 40
76.0000000000002
100
AcDbArc
 50
18.6318862997
 51
75.5224878141
  0
ARC
  5
7A
330
1F
100
AcDbEntity
  8
0
  6
Continuous
 62
     7
370
    25
100
AcDbCircle
 10
0.0
 20
0.0
 30
0.0
 40
75.99999999999982
100
AcDbArc
 50
288.6318862997
 51
345.5224878141
  0
ENDSEC
  0
SECTION
  2
OBJECTS
  0
DICTIONARY
  5
C
330
0
100
AcDbDictionary
281
     1
  3
ACAD_GROUP
350
D
  3
ACAD_LAYOUT
350
1A
  3
ACAD_MLINESTYLE
350
17
  3
ACAD_PLOTSETTINGS
350
19
  3
ACAD_PLOTSTYLENAME
350
E
  3
ACAD_SCALELIST
350
47
  3
DWGPROPS
350
7B
  0
DICTIONARY
  5
D
102
{ACAD_REACTORS
330
C
102
}
330
C
100
AcDbDictionary
281
     1
  0
DICTIONARY
  5
1A
102
{ACAD_REACTORS
330
C
102
}
330
C
100
AcDbDictionary
281
     1
  3
Layout1
350
1E
  3
Layout2
350
26
  3
Model
350
22
  0
DICTIONARY
  5
17
102
{ACAD_REACTORS
330
C
102
}
330
C
100
AcDbDictionary
281
     1
  3
Standard
350
18
  0
DICTIONARY
  5
19
102
{ACAD_REACTORS
330
C
102
}
330
C
100
AcDbDictionary
281
     1
  0
ACDBDICTIONARYWDFLT
  5
E
102
{ACAD_REACTORS
330
C
102
}
330
C
100
AcDbDictionary
281
     1
  3
Normal
350
F
100
AcDbDictionaryWithDefault
340
F
  0
DICTIONARY
  5
47
102
{ACAD_REACTORS
330
C
102
}
330
C
100
AcDbDictionary
281
     1
  3
A0
350
48
  3
A1
350
49
  3
A2
350
4A
  3
A3
350
4B
  3
A4
350
4C
  3
A5
350
4D
  3
A6
350
4E
  3
A7
350
4F
  3
A8
350
50
  3
A9
350
51
  3
B0
350
52
  3
B1
350
53
  3
B2
350
54
  3
B3
350
55
  3
B4
350
56
  3
B5
350
57
  3
B6
350
58
  0
XRECORD
  5
7B
102
{ACAD_REACTORS
330
C
102
}
330
C
100
AcDbXrecord
280
     1
  1
DWGPROPS COOKIE
  2

  3

  4

  6

  7

  8
nkb22145
  9

300
=
301
=
302
=
303
=
304
=
305
=
306
=
307
=
308
=
309
=
 40
0.0
 41
2460012.653138206
 42
2460012.653190718
  1

 90
        0
  0
LAYOUT
  5
1E
102
{ACAD_REACTORS
330
1A
102
}
330
1A
100
AcDbPlotSettings
  1

  2
none_device
  4

  6

 40
0.0
 41
0.0
 42
0.0
 43
0.0
 44
0.0
 45
0.0
 46
0.0
 47
0.0
 48
0.0
 49
0.0
140
0.0
141
0.0
142
1.0
143
1.0
 70
   688
 72
     1
 73
     0
 74
     5
  7

 75
    16
147
1.0
148
0.0
149
0.0
100
AcDbLayout
  1
Layout1
 70
     1
 71
     1
 10
0.0
 20
0.0
 11
420.0
 21
297.0
 12
0.0
 22
0.0
 32
0.0
 14
1.0000000000E+20
 24
1.0000000000E+20
 34
1.0000000000E+20
 15
-1.0000000000E+20
 25
-1.0000000000E+20
 35
-1.0000000000E+20
146
0.0
 13
0.0
 23
0.0
 33
0.0
 16
1.0
 26
0.0
 36
0.0
 17
0.0
 27
1.0
 37
0.0
 76
     0
330
1B
  0
LAYOUT
  5
26
102
{ACAD_REACTORS
330
1A
102
}
330
1A
100
AcDbPlotSettings
  1

  2
none_device
  4

  6

 40
0.0
 41
0.0
 42
0.0
 43
0.0
 44
0.0
 45
0.0
 46
0.0
 47
0.0
 48
0.0
 49
0.0
140
0.0
141
0.0
142
1.0
143
1.0
 70
   688
 72
     1
 73
     0
 74
     5
  7

 75
    16
147
1.0
148
0.0
149
0.0
100
AcDbLayout
  1
Layout2
 70
     1
 71
     2
 10
0.0
 20
0.0
 11
0.0
 21
0.0
 12
0.0
 22
0.0
 32
0.0
 14
0.0
 24
0.0
 34
0.0
 15
0.0
 25
0.0
 35
0.0
146
0.0
 13
0.0
 23
0.0
 33
0.0
 16
1.0
 26
0.0
 36
0.0
 17
0.0
 27
1.0
 37
0.0
 76
     0
330
23
  0
LAYOUT
  5
22
102
{ACAD_REACTORS
330
1A
102
}
330
1A
100
AcDbPlotSettings
  1

  2
none_device
  4
ANSI_A_(11.00_x_8.50_Inches)
  6

 40
6.35
 41
19.05
 42
6.35000508
 43
19.05000254
 44
279.4
 45
215.9
 46
133.34999746
 47
88.89999873
 48
0.0
 49
0.0
140
0.0
141
0.0
142
0.0571774647
143
1.0
 70
  1696
 72
     0
 73
     0
 74
     0
  7

 75
     0
147
0.0179189148
148
-1300.4909072572
149
0.0
100
AcDbLayout
  1
Model
 70
     1
 71
     0
 10
0.0
 20
0.0
 11
420.0
 21
297.0
 12
0.0
 22
0.0
 32
0.0
 14
-73.5866835779
 24
-73.5866835779
 34
0.0
 15
73.5866835779
 25
73.5866835779
 35
0.0
146
0.0
 13
0.0
 23
0.0
 33
0.0
 16
1.0
 26
0.0
 36
0.0
 17
0.0
 27
1.0
 37
0.0
 76
     0
330
1F
331
29
  0
MLINESTYLE
  5
18
102
{ACAD_REACTORS
330
17
102
}
330
17
100
AcDbMlineStyle
  2
Standard
 70
     0
  3

 62
   256
 51
90.0
 52
90.0
 71
     2
 49
0.5
 62
   256
  6
BYLAYER
 49
-0.5
 62
   256
  6
BYLAYER
  0
ACDBPLACEHOLDER
  5
F
102
{ACAD_REACTORS
330
E
102
}
330
E
  0
SCALE
  5
48
102
{ACAD_REACTORS
330
47
102
}
330
47
100
AcDbScale
 70
     0
300
1:1
140
1.0
141
1.0
290
     1
  0
SCALE
  5
49
102
{ACAD_REACTORS
330
47
102
}
330
47
100
AcDbScale
 70
     0
300
1:2
140
1.0
141
2.0
290
     0
  0
SCALE
  5
4A
102
{ACAD_REACTORS
330
47
102
}
330
47
100
AcDbScale
 70
     0
300
1:4
140
1.0
141
4.0
290
     0
  0
SCALE
  5
4B
102
{ACAD_REACTORS
330
47
102
}
330
47
100
AcDbScale
 70
     0
300
1:5
140
1.0
141
5.0
290
     0
  0
SCALE
  5
4C
102
{ACAD_REACTORS
330
47
102
}
330
47
100
AcDbScale
 70
     0
300
1:8
140
1.0
141
8.0
290
     0
  0
SCALE
  5
4D
102
{ACAD_REACTORS
330
47
102
}
330
47
100
AcDbScale
 70
     0
300
1:10
140
1.0
141
10.0
290
     0
  0
SCALE
  5
4E
102
{ACAD_REACTORS
330
47
102
}
330
47
100
AcDbScale
 70
     0
300
1:16
140
1.0
141
16.0
290
     0
  0
SCALE
  5
4F
102
{ACAD_REACTORS
330
47
102
}
330
47
100
AcDbScale
 70
     0
300
1:20
140
1.0
141
20.0
290
     0
  0
SCALE
  5
50
102
{ACAD_REACTORS
330
47
102
}
330
47
100
AcDbScale
 70
     0
300
1:30
140
1.0
141
30.0
290
     0
  0
SCALE
  5
51
102
{ACAD_REACTORS
330
47
102
}
330
47
100
AcDbScale
 70
     0
300
1:40
140
1.0
141
40.0
290
     0
  0
SCALE
  5
52
102
{ACAD_REACTORS
330
47
102
}
330
47
100
AcDbScale
 70
     0
300
1:50
140
1.0
141
50.0
290
     0
  0
SCALE
  5
53
102
{ACAD_REACTORS
330
47
102
}
330
47
100
AcDbScale
 70
     0
300
1:100
140
1.0
141
100.0
290
     0
  0
SCALE
  5
54
102
{ACAD_REACTORS
330
47
102
}
330
47
100
AcDbScale
 70
     0
300
2:1
140
2.0
141
1.0
290
     0
  0
SCALE
  5
55
102
{ACAD_REACTORS
330
47
102
}
330
47
100
AcDbScale
 70
     0
300
4:1
140
4.0
141
1.0
290
     0
  0
SCALE
  5
56
102
{ACAD_REACTORS
330
47
102
}
330
47
100
AcDbScale
 70
     0
300
8:1
140
8.0
141
1.0
290
     0
  0
SCALE
  5
57
102
{ACAD_REACTORS
330
47
102
}
330
47
100
AcDbScale
 70
     0
300
10:1
140
10.0
141
1.0
290
     0
  0
SCALE
  5
58
102
{ACAD_REACTORS
330
47
102
}
330
47
100
AcDbScale
 70
     0
300
100:1
140
100.0
141
1.0
290
     0
  0
ENDSEC
  0
EOF
